<mxfile host="65bd71144e">
    <diagram id="hVWNacycG0EmZBMDkKeU" name="Phoenix">
        <mxGraphModel dx="1212" dy="907" grid="1" gridSize="10" guides="1" tooltips="1" connect="1" arrows="1" fold="1" page="1" pageScale="1" pageWidth="850" pageHeight="1100" background="#FFFFFF" math="0" shadow="0">
            <root>
                <mxCell id="0"/>
                <mxCell id="1" parent="0"/>
                <mxCell id="14" value="Phoenix Server Side Template" style="shape=umlFrame;whiteSpace=wrap;html=1;width=220;height=30;boundedLbl=1;verticalAlign=middle;align=center;spacingLeft=5;rounded=0;sketch=0;fontColor=#333333;strokeColor=#666666;fillColor=#f5f5f5;" parent="1" vertex="1">
                    <mxGeometry x="60" y="90" width="480" height="680" as="geometry"/>
                </mxCell>
                <mxCell id="17" style="edgeStyle=orthogonalEdgeStyle;rounded=1;orthogonalLoop=1;jettySize=auto;html=1;entryX=0.5;entryY=0;entryDx=0;entryDy=0;strokeColor=#000000;" edge="1" parent="1" source="15" target="16">
                    <mxGeometry relative="1" as="geometry"/>
                </mxCell>
                <mxCell id="15" value="User visits page" style="rounded=0;whiteSpace=wrap;html=1;fillColor=#f5f5f5;strokeColor=#666666;fontColor=#000000;fontFamily=Verdana;" parent="1" vertex="1">
                    <mxGeometry x="220" y="140" width="160" height="60" as="geometry"/>
                </mxCell>
                <mxCell id="22" style="edgeStyle=orthogonalEdgeStyle;rounded=1;orthogonalLoop=1;jettySize=auto;html=1;entryX=0.5;entryY=0;entryDx=0;entryDy=0;strokeColor=#000000;" edge="1" parent="1" source="16" target="18">
                    <mxGeometry relative="1" as="geometry"/>
                </mxCell>
                <mxCell id="16" value="HTTP request to Server" style="rounded=0;whiteSpace=wrap;html=1;fillColor=#f5f5f5;strokeColor=#666666;fontColor=#000000;fontFamily=Verdana;" parent="1" vertex="1">
                    <mxGeometry x="220" y="250" width="160" height="60" as="geometry"/>
                </mxCell>
                <mxCell id="23" style="edgeStyle=orthogonalEdgeStyle;rounded=1;orthogonalLoop=1;jettySize=auto;html=1;entryX=0.5;entryY=0;entryDx=0;entryDy=0;strokeColor=#000000;" edge="1" parent="1" source="18" target="19">
                    <mxGeometry relative="1" as="geometry"/>
                </mxCell>
                <mxCell id="18" value="New HTML document" style="rounded=0;whiteSpace=wrap;html=1;fillColor=#ffe6cc;strokeColor=#d79b00;fontFamily=Verdana;fontColor=#000000;" vertex="1" parent="1">
                    <mxGeometry x="220" y="360" width="160" height="60" as="geometry"/>
                </mxCell>
                <mxCell id="24" style="edgeStyle=orthogonalEdgeStyle;rounded=1;orthogonalLoop=1;jettySize=auto;html=1;strokeColor=#000000;" edge="1" parent="1" source="19" target="20">
                    <mxGeometry relative="1" as="geometry"/>
                </mxCell>
                <mxCell id="19" value="User clicks a link" style="rounded=0;whiteSpace=wrap;html=1;fillColor=#f5f5f5;strokeColor=#666666;fontColor=#000000;fontFamily=Verdana;" vertex="1" parent="1">
                    <mxGeometry x="220" y="470" width="160" height="60" as="geometry"/>
                </mxCell>
                <mxCell id="25" style="edgeStyle=orthogonalEdgeStyle;rounded=1;orthogonalLoop=1;jettySize=auto;html=1;strokeColor=#000000;" edge="1" parent="1" source="20" target="21">
                    <mxGeometry relative="1" as="geometry"/>
                </mxCell>
                <mxCell id="20" value="HTTP request to server" style="rounded=0;whiteSpace=wrap;html=1;fillColor=#f5f5f5;strokeColor=#666666;fontColor=#000000;fontFamily=Verdana;" vertex="1" parent="1">
                    <mxGeometry x="220" y="580" width="160" height="60" as="geometry"/>
                </mxCell>
                <mxCell id="21" value="New HTML document" style="rounded=0;whiteSpace=wrap;html=1;fillColor=#ffe6cc;strokeColor=#d79b00;fontFamily=Verdana;fontColor=#000000;" vertex="1" parent="1">
                    <mxGeometry x="220" y="690" width="160" height="60" as="geometry"/>
                </mxCell>
                <mxCell id="26" value="Single Page Application" style="shape=umlFrame;whiteSpace=wrap;html=1;width=220;height=30;boundedLbl=1;verticalAlign=middle;align=center;spacingLeft=5;rounded=0;sketch=0;fontColor=#333333;strokeColor=#666666;fillColor=#f5f5f5;" vertex="1" parent="1">
                    <mxGeometry x="580" y="90" width="480" height="680" as="geometry"/>
                </mxCell>
                <mxCell id="27" style="edgeStyle=orthogonalEdgeStyle;rounded=1;orthogonalLoop=1;jettySize=auto;html=1;entryX=0.5;entryY=0;entryDx=0;entryDy=0;strokeColor=#000000;" edge="1" parent="1" source="28" target="30">
                    <mxGeometry relative="1" as="geometry"/>
                </mxCell>
                <mxCell id="28" value="User visits page" style="rounded=0;whiteSpace=wrap;html=1;fillColor=#f5f5f5;strokeColor=#666666;fontColor=#000000;fontFamily=Verdana;" vertex="1" parent="1">
                    <mxGeometry x="740" y="140" width="160" height="60" as="geometry"/>
                </mxCell>
                <mxCell id="29" style="edgeStyle=orthogonalEdgeStyle;rounded=1;orthogonalLoop=1;jettySize=auto;html=1;entryX=0.5;entryY=0;entryDx=0;entryDy=0;strokeColor=#000000;" edge="1" parent="1" source="30" target="32">
                    <mxGeometry relative="1" as="geometry"/>
                </mxCell>
                <mxCell id="30" value="HTTP request to Server" style="rounded=0;whiteSpace=wrap;html=1;fillColor=#f5f5f5;strokeColor=#666666;fontColor=#000000;fontFamily=Verdana;" vertex="1" parent="1">
                    <mxGeometry x="740" y="250" width="160" height="60" as="geometry"/>
                </mxCell>
                <mxCell id="31" style="edgeStyle=orthogonalEdgeStyle;rounded=1;orthogonalLoop=1;jettySize=auto;html=1;entryX=0.5;entryY=0;entryDx=0;entryDy=0;strokeColor=#000000;" edge="1" parent="1" source="32" target="34">
                    <mxGeometry relative="1" as="geometry"/>
                </mxCell>
                <mxCell id="32" value="New HTML document" style="rounded=0;whiteSpace=wrap;html=1;fillColor=#ffe6cc;strokeColor=#d79b00;fontFamily=Verdana;fontColor=#000000;" vertex="1" parent="1">
                    <mxGeometry x="740" y="360" width="160" height="60" as="geometry"/>
                </mxCell>
                <mxCell id="33" style="edgeStyle=orthogonalEdgeStyle;rounded=1;orthogonalLoop=1;jettySize=auto;html=1;strokeColor=#000000;" edge="1" parent="1" source="34" target="36">
                    <mxGeometry relative="1" as="geometry"/>
                </mxCell>
                <mxCell id="34" value="React/Angular boots up, shows page" style="rounded=0;whiteSpace=wrap;html=1;fillColor=#f5f5f5;strokeColor=#666666;fontColor=#000000;fontFamily=Verdana;" vertex="1" parent="1">
                    <mxGeometry x="710" y="470" width="220" height="60" as="geometry"/>
                </mxCell>
                <mxCell id="35" style="edgeStyle=orthogonalEdgeStyle;rounded=1;orthogonalLoop=1;jettySize=auto;html=1;strokeColor=#000000;" edge="1" parent="1" source="36" target="37">
                    <mxGeometry relative="1" as="geometry"/>
                </mxCell>
                <mxCell id="36" value="HTTP request to server" style="rounded=0;whiteSpace=wrap;html=1;fillColor=#f5f5f5;strokeColor=#666666;fontColor=#000000;fontFamily=Verdana;" vertex="1" parent="1">
                    <mxGeometry x="740" y="580" width="160" height="60" as="geometry"/>
                </mxCell>
                <mxCell id="37" value="React/Angular shows new content" style="rounded=0;whiteSpace=wrap;html=1;fillColor=#ffe6cc;strokeColor=#d79b00;fontFamily=Verdana;fontColor=#000000;" vertex="1" parent="1">
                    <mxGeometry x="710" y="690" width="220" height="60" as="geometry"/>
                </mxCell>
                <mxCell id="39" value="DiferenÃ§as Phoenix" style="shape=umlFrame;whiteSpace=wrap;html=1;width=220;height=30;boundedLbl=1;verticalAlign=middle;align=center;spacingLeft=5;rounded=0;sketch=0;fontColor=#333333;strokeColor=#666666;fillColor=#f5f5f5;" vertex="1" parent="1">
                    <mxGeometry x="40" y="40" width="1040" height="750" as="geometry"/>
                </mxCell>
            </root>
        </mxGraphModel>
    </diagram>
</mxfile>